<svg width="478" height="243" xmlns="http://www.w3.org/2000/svg" xmlns:xlink="http://www.w3.org/1999/xlink" xml:space="preserve" overflow="hidden"><g transform="translate(510 -417)"><path d="M1055.46 233.881C1055.46 185.856 1094.39 146.925 1142.42 146.925 1190.44 146.925 1229.37 185.856 1229.37 233.881 1229.37 281.905 1190.44 320.836 1142.42 320.836 1094.39 320.836 1055.46 281.905 1055.46 233.881Z" fill="#258F95" fill-rule="evenodd" transform="matrix(1.00161 0 0 1 -1555.4 308.056)"/><text fill="#FFFFFF" font-family="Speak Pro,Speak Pro_MSFontService,sans-serif" font-weight="700" font-size="133" transform="matrix(1.0011 0 0 0.99949 -482.605 584)">RX</text><text fill="#FFFFFF" font-family="Speak Pro,Speak Pro_MSFontService,sans-serif" font-weight="400" font-size="133" transform="matrix(1.0011 0 0 0.99949 -315.551 584)">WaT</text><text fill="#FFFFFF" font-family="Speak Pro,Speak Pro_MSFontService,sans-serif" font-weight="400" font-size="133" transform="matrix(1.0011 0 0 0.99949 -109.424 584)">T</text><path d="M1208.38 151.922C1208.38 134.258 1222.71 119.939 1240.37 119.939 1258.03 119.939 1272.35 134.258 1272.35 151.922 1272.35 169.586 1258.03 183.906 1240.37 183.906 1222.71 183.906 1208.38 169.586 1208.38 151.922Z" fill="#258F95" fill-rule="evenodd" transform="matrix(1.00161 0 0 1 -1555.4 308.056)"/><path d="M1280.35 145.926C1280.35 136.541 1287.95 128.934 1297.34 128.934 1306.72 128.934 1314.33 136.541 1314.33 145.926 1314.33 155.31 1306.72 162.917 1297.34 162.917 1287.95 162.917 1280.35 155.31 1280.35 145.926Z" fill="#258F95" fill-rule="evenodd" transform="matrix(1.00161 0 0 1 -1555.4 308.056)"/><path d="M1314.33 169.414C1314.33 163.618 1319.03 158.919 1324.82 158.919 1330.62 158.919 1335.32 163.618 1335.32 169.414 1335.32 175.21 1330.62 179.908 1324.82 179.908 1319.03 179.908 1314.33 175.21 1314.33 169.414Z" fill="#258F95" fill-rule="evenodd" transform="matrix(1.00161 0 0 1 -1555.4 308.056)"/><path d="M1341.32 163.916C1341.32 161.157 1343.77 158.919 1346.81 158.919 1349.85 158.919 1352.31 161.157 1352.31 163.916 1352.31 166.676 1349.85 168.914 1346.81 168.914 1343.77 168.914 1341.32 166.676 1341.32 163.916Z" fill="#258F95" fill-rule="evenodd" transform="matrix(1.00161 0 0 1 -1555.4 308.056)"/></g></svg>