<svg xmlns="http://www.w3.org/2000/svg" width="991" height="550" viewBox="0 0 991 550" fill="none"><path d="M264.134 275.411C269.744 271.884 278.85 271.868 284.473 275.377L373.144 330.715C378.767 334.224 378.776 339.928 373.166 343.456L277.662 403.502C275.792 404.678 272.756 404.683 270.882 403.514L175.424 343.94C169.802 340.431 169.792 334.727 175.403 331.2L264.134 275.411Z" fill="#353535"></path><path d="M372.467 268.463L288.166 215.853C282.543 212.344 273.437 212.359 267.826 215.887L175.194 274.128C169.584 277.655 169.593 283.36 175.216 286.868L259.517 339.479C265.139 342.988 274.245 342.973 279.856 339.445L372.488 281.204C378.099 277.676 378.089 271.972 372.467 268.463Z" fill="#7FBFB6" fill-opacity="0.9"></path><path d="M265.98 148.656C271.591 145.129 280.697 145.113 286.319 148.622L377.737 205.674C383.359 209.183 383.369 214.887 377.758 218.415L272.56 284.556L170.962 221.151C165.34 217.642 165.33 211.938 170.941 208.411L265.98 148.656Z" fill="#EFBC75"></path><path d="M166.009 217.068C166.009 210.441 170.567 207.913 176.189 211.421L274.977 273.073C277.319 274.535 279.218 277.958 279.218 280.72V396.913C279.218 403.54 274.661 406.068 269.038 402.559L176.189 344.614C170.567 341.105 166.009 332.888 166.009 326.261V217.068Z" fill="#DA5F5B"></path><path d="M456.882 339.429C430.422 339.429 412.782 321.609 412.782 301.629H431.142C431.502 312.249 441.402 322.509 456.882 322.509C471.642 322.509 480.282 313.149 480.282 302.889C480.282 291.909 470.382 286.689 460.302 283.989L444.462 280.029C418.002 273.369 413.682 257.709 413.682 247.449C413.682 225.669 432.942 211.089 454.902 211.089C477.222 211.089 494.682 225.129 494.682 247.809H476.322C476.322 236.109 467.142 228.009 454.362 228.009C442.662 228.009 432.222 235.749 432.222 247.089C432.222 251.049 433.482 259.149 449.142 263.289L464.802 267.609C485.682 273.189 498.822 283.809 498.822 301.989C498.822 322.689 481.902 339.429 456.882 339.429Z" fill="#1D1D1B"></path><path d="M507.929 213.249H600.269V230.169H563.369V337.269H544.829V230.169H507.929V213.249Z" fill="#1D1D1B"></path><path d="M707.034 337.269H687.594L676.074 305.949H624.414L612.894 337.269H593.454L640.434 213.249H660.234L707.034 337.269ZM650.334 235.749L630.354 289.749H670.134L650.334 235.749Z" fill="#1D1D1B"></path><path d="M776.531 339.429C741.431 339.429 713.531 310.629 713.531 275.529C713.531 240.429 741.431 211.089 776.531 211.089C796.151 211.089 813.251 219.729 824.231 233.409L810.551 244.389C802.631 234.669 790.391 228.369 776.711 228.369C751.511 228.369 732.071 249.969 732.071 275.529C732.071 300.909 751.331 322.149 776.711 322.149C790.391 322.149 802.631 315.849 810.551 306.129L824.231 317.109C813.251 330.789 796.151 339.429 776.531 339.429Z" fill="#1D1D1B"></path></svg>